# xmcd
#
# Track frame offsets:
#	150
#	19495
#	42085
#	60535
#	84095
#	125645
#	147370
#
# Disc length: 2408 seconds
#
# Revision: 1
# Processed by: cddbd v1.5.1PL2 Copyright (c) Steve Scherf et al.
# Submitted via: EasyCDDAExtractor 8.0.2.1
#
DISCID=59096607
DTITLE=Whitesnake - Neue Welt Berlin 12-02-79
DYEAR=1979
DGENRE=Hard Rock
TTITLE0=Come On
TTITLE1=Might Just Take Your Life
TTITLE2=Lie Down
TTITLE3=Trouble
TTITLE4=Mistreated
TTITLE5=Belgian Tom's Hat Trick
TTITLE6=Breakdown
EXTD=
EXTT0=
EXTT1=
EXTT2=
EXTT3=
EXTT4=
EXTT5=
EXTT6=
PLAYORDER=
